<svg xmlns="http://www.w3.org/2000/svg" viewBox="0 0 632 380" fill="none">
  <rect width="632" height="380" rx="12" fill="#1f1f1f"/>
  <rect x="40" y="30" width="552" height="60" rx="8" fill="#2a2a2a"/>
  <rect x="60" y="45" width="30" height="30" rx="4" fill="#e50914"/>
  <rect x="110" y="50" width="280" height="20" rx="4" fill="#333"/>
  <rect x="60" y="115" width="512" height="50" rx="8" fill="#2a2a2a"/>
  <text x="80" y="145" fill="#b3b3b3" font-size="14" font-family="sans-serif">Enter URL or code:</text>
  <rect x="240" y="125" width="200" height="32" rx="6" fill="#1a1a1a" stroke="#e50914" stroke-width="2"/>
  <text x="260" y="146" fill="#e50914" font-size="16" font-weight="bold" font-family="sans-serif">gstream.app/tv</text>
  <rect x="460" y="125" width="80" height="32" rx="6" fill="#e50914"/>
  <text x="500" y="146" text-anchor="middle" fill="#fff" font-size="14" font-weight="bold" font-family="sans-serif">Go</text>
  <rect x="60" y="185" width="512" height="160" rx="8" fill="#2a2a2a"/>
  <rect x="80" y="200" width="472" height="30" rx="4" fill="#333"/>
  <text x="100" y="220" fill="#fff" font-size="13" font-family="sans-serif">Downloading GStream APK...</text>
  <rect x="80" y="245" width="472" height="20" rx="10" fill="#333"/>
  <rect x="80" y="245" width="300" height="20" rx="10" fill="#e50914"/>
  <text x="316" y="259" text-anchor="middle" fill="#fff" font-size="11" font-family="sans-serif">63%</text>
  <rect x="80" y="280" width="150" height="40" rx="8" fill="#333"/>
  <text x="100" y="305" fill="#666" font-size="13" font-family="sans-serif">Cancel</text>
  <text x="316" y="365" text-anchor="middle" fill="#808080" font-size="11" font-family="sans-serif">↓ APK downloads automatically in Downloader</text>
</svg>